# xmcd CD database file
#
# Track frame offsets:
#	150
#	23204
#	38390
#	56883
#	78144
#	100784
#	120770
#	148999
#	165084
#	180863
#	200505
#	215952
#
# Disc length: 3171 seconds
#
# Revision: 0
# Processed by: cddbd v1.5.1PL2 Copyright (c) Steve Scherf et al.
# Submitted via: CDex 1.51
#
DISCID=930c610c
DTITLE=Jim Wallace - Rush to Hell
DYEAR=2004
DGENRE=Blues
TTITLE0=Cold Blues Steel
TTITLE1=Adam's Bone
TTITLE2=Salt On My Cheek
TTITLE3=Rush To Hell
TTITLE4=2 Times 20
TTITLE5=Wrecked
TTITLE6=Kiss Me Or Cuss Me
TTITLE7=Submarine Blues
TTITLE8=Looser's Rumba
TTITLE9=Pet Cream Man
TTITLE10=Would You Baby
TTITLE11=You May
EXTD=YEAR: 2004
EXTT0=
EXTT1=
EXTT2=
EXTT3=
EXTT4=
EXTT5=
EXTT6=
EXTT7=
EXTT8=
EXTT9=
EXTT10=
EXTT11=
PLAYORDER=
